<svg xmlns="http://www.w3.org/2000/svg" xmlns:xlink="http://www.w3.org/1999/xlink" version="1.1" x="0px" y="0px" viewBox="0 0 53 66.25" enable-background="new 0 0 53 53" xml:space="preserve"><g><path d="M40.80371,16.44483h2.03821c0.45575,1.96643,2.21271,3.43994,4.31531,3.43994c2.44824,0,4.43945-1.99121,4.43945-4.43896   s-1.99121-4.43896-4.43945-4.43896c-2.10187,0-3.85828,1.4726-4.3147,3.43799h-2.03882c-5.92572,0-6.44,4.72314-10.43359,5.92542   c-0.41602-0.57629-1.09088-0.95569-1.85645-0.95569h-0.13965v-4.75c0-6.771-5.50488-12.27979-12.27051-12.27979   S3.83398,7.89356,3.83398,14.66456v4.75H3.68359c-1.25781,0-2.28027,1.02295-2.28027,2.28027v18.22998   c0,1.25684,1.02246,2.27979,2.28027,2.27979h24.83008c0.76538,0,1.44019-0.37927,1.8562-0.95526   c3.83667,1.15479,4.56305,5.92548,10.43384,5.92548h2.0351c0.45557,1.96661,2.21283,3.44043,4.31647,3.44043   c2.44727,0,4.43848-1.99121,4.43848-4.43896s-1.99121-4.43896-4.43848-4.43896c-2.10254,0-3.85889,1.47241-4.31555,3.4375h-2.03601   c-4.9422,0-5.22729-4.52832-10-5.87256v-5.11334c2.99634,0.58307,3.17438,2.36481,6.76727,3.08441   c0.37408,1.91608,2.06195,3.3678,4.08624,3.3678c2.29688,0,4.16602-1.86914,4.16602-4.1665s-1.86914-4.1665-4.16602-4.1665   c-1.87543,0-3.44666,1.25323-3.96777,2.96008c-2.97949-0.71942-3.05328-2.51178-6.88574-3.08746v-2.74188   c3.84906-0.57837,3.91559-2.3714,6.88184-3.08832c0.52118,1.70685,2.09235,2.96002,3.96777,2.96002   c2.29688,0,4.16602-1.86914,4.16602-4.1665s-1.86914-4.1665-4.16602-4.1665c-2.02429,0-3.7121,1.45172-4.08624,3.36774   c-3.66089,0.73291-3.70264,2.48938-6.76337,3.08533v-5.11322C35.69415,20.93995,35.82782,16.44483,40.80371,16.44483z    M47.15723,13.00685c1.34473,0,2.43945,1.09424,2.43945,2.43896s-1.09473,2.43896-2.43945,2.43896   s-2.43848-1.09424-2.43848-2.43896S45.8125,13.00685,47.15723,13.00685z M5.83398,14.66456   c0-5.66846,4.60645-10.27979,10.26953-10.27979S26.37402,8.9961,26.37402,14.66456v4.75H23.7334v-4.75   c0-4.2124-3.42285-7.63965-7.62988-7.63965s-7.62988,3.42725-7.62988,7.63965v4.75H5.83398V14.66456z M21.7334,14.66456v4.75   H10.47363v-4.75c0-3.10986,2.52539-5.63965,5.62988-5.63965S21.7334,11.5547,21.7334,14.66456z M28.51367,40.2046H3.68359   c-0.15723,0-0.28027-0.12305-0.28027-0.27979V21.69483c0-0.15723,0.12305-0.28027,0.28027-0.28027c4.17944,0,17.81116,0,24.83008,0   c0.16101,0,0.28009,0.11664,0.28601,0.27051c0.00134,0.00934-0.00244,0.01794-0.00085,0.02734   c0.00085,0.00494,0.00397,0.00867,0.00488,0.01355C28.66925,40.98274,29.08801,40.2046,28.51367,40.2046z M47.15527,43.73732   c1.34473,0,2.43848,1.09424,2.43848,2.43896S48.5,48.61525,47.15527,48.61525s-2.43945-1.09424-2.43945-2.43896   S45.81055,43.73732,47.15527,43.73732z M41.65723,34.30812c1.19434,0,2.16602,0.97168,2.16602,2.1665   s-0.97168,2.1665-2.16602,2.1665c-1.19531,0-2.16699-0.97168-2.16699-2.1665S40.46191,34.30812,41.65723,34.30812z    M41.65332,22.97755c1.19434,0,2.16602,0.97168,2.16602,2.1665s-0.97168,2.1665-2.16602,2.1665   c-1.19531,0-2.16699-0.97168-2.16699-2.1665S40.45801,22.97755,41.65332,22.97755z"/><path d="M25.45801,34.37355H13.67578c-0.27637,0-0.5,0.22363-0.5,0.5v2.88721c0,0.27637,0.22363,0.5,0.5,0.5h11.78223   c0.27637,0,0.5-0.22363,0.5-0.5v-2.88721C25.95801,34.59718,25.73438,34.37355,25.45801,34.37355z M24.95801,37.26075H14.17578   v-1.88721h10.78223V37.26075z"/><path d="M25.45801,28.86622H13.67578c-0.27637,0-0.5,0.22363-0.5,0.5v2.88721c0,0.27637,0.22363,0.5,0.5,0.5h11.78223   c0.27637,0,0.5-0.22363,0.5-0.5v-2.88721C25.95801,29.08985,25.73438,28.86622,25.45801,28.86622z M24.95801,31.75343H14.17578   v-1.88721h10.78223V31.75343z"/><path d="M25.45801,23.35938H13.67578c-0.27637,0-0.5,0.22363-0.5,0.5v2.88721c0,0.27637,0.22363,0.5,0.5,0.5h11.78223   c0.27637,0,0.5-0.22363,0.5-0.5v-2.88721C25.95801,23.58302,25.73438,23.35938,25.45801,23.35938z M24.95801,26.24659H14.17578   v-1.88721h10.78223V26.24659z"/><path d="M9.0498,34.37355c-1.07129,0-1.94336,0.87158-1.94336,1.94336s0.87207,1.94385,1.94336,1.94385   c1.07227,0,1.94434-0.87207,1.94434-1.94385S10.12207,34.37355,9.0498,34.37355z M9.0498,37.26075   c-0.52051,0-0.94336-0.42334-0.94336-0.94385c0-0.52002,0.42285-0.94336,0.94336-0.94336s0.94434,0.42334,0.94434,0.94336   C9.99414,36.83741,9.57031,37.26075,9.0498,37.26075z"/><path d="M9.0498,28.86671c-1.07129,0-1.94336,0.87158-1.94336,1.94336s0.87207,1.94336,1.94336,1.94336   c1.07227,0,1.94434-0.87158,1.94434-1.94336S10.12207,28.86671,9.0498,28.86671z M9.0498,31.75343   c-0.52051,0-0.94336-0.42334-0.94336-0.94336s0.42285-0.94336,0.94336-0.94336s0.94434,0.42334,0.94434,0.94336   S9.57031,31.75343,9.0498,31.75343z"/><path d="M9.0498,23.35938c-1.07129,0-1.94336,0.87207-1.94336,1.94385s0.87207,1.94336,1.94336,1.94336   c1.07227,0,1.94434-0.87158,1.94434-1.94336S10.12207,23.35938,9.0498,23.35938z M9.0498,26.24659   c-0.52051,0-0.94336-0.42334-0.94336-0.94336c0-0.52051,0.42285-0.94385,0.94336-0.94385s0.94434,0.42334,0.94434,0.94385   C9.99414,25.82325,9.57031,26.24659,9.0498,26.24659z"/></g><text x="0" y="68" fill="#000000" font-size="5px" font-weight="bold" font-family="'Helvetica Neue', Helvetica, Arial-Unicode, Arial, Sans-serif">Created by Vectors Point</text><text x="0" y="73" fill="#000000" font-size="5px" font-weight="bold" font-family="'Helvetica Neue', Helvetica, Arial-Unicode, Arial, Sans-serif">from the Noun Project</text></svg>