<?xml version="1.0" standalone="no"?>
<!DOCTYPE svg PUBLIC "-//W3C//DTD SVG 20010904//EN"
 "http://www.w3.org/TR/2001/REC-SVG-20010904/DTD/svg10.dtd">
<svg version="1.0" xmlns="http://www.w3.org/2000/svg"
 width="1280.000000pt" height="1320.000000pt" viewBox="0 0 1280.000000 1320.000000"
 preserveAspectRatio="xMidYMid meet">
<metadata>
Created by potrace 1.16, written by Peter Selinger 2001-2019
</metadata>
<g transform="translate(0.000000,1320.000000) scale(0.100000,-0.100000)"
fill="#000000" stroke="none">
<path d="M4925 12909 c-659 -55 -1256 -219 -1830 -499 -988 -484 -1795 -1280
-2289 -2259 -257 -509 -431 -1073 -500 -1621 -59 -466 -54 -965 14 -1414 250
-1642 1300 -3060 2805 -3787 977 -472 2085 -613 3160 -403 259 50 601 149 829
238 l87 34 13 -21 c7 -12 46 -80 86 -152 467 -827 1132 -1603 1886 -2206 161
-128 179 -139 231 -139 46 0 80 22 283 189 1342 1100 2283 2640 2659 4354 98
446 150 857 171 1352 16 363 12 372 -172 386 -277 22 -497 126 -684 322 -169
177 -251 362 -278 627 -7 63 -18 125 -24 137 -29 52 -34 53 -546 53 l-475 0
-5 53 c-3 28 -8 90 -11 137 -36 504 -179 1087 -386 1573 -254 594 -603 1110
-1064 1573 -831 834 -1857 1325 -3055 1460 -162 19 -742 27 -905 13z m610
-379 c1053 -55 2016 -440 2814 -1126 l113 -97 -500 -500 -499 -499 -95 78
c-473 392 -1009 623 -1648 711 -177 24 -644 24 -818 0 -421 -60 -793 -180
-1136 -368 -136 -74 -365 -226 -466 -309 -41 -33 -90 -73 -108 -87 l-33 -26
-500 499 -500 499 48 43 c95 85 330 271 443 350 703 493 1550 785 2410 831
214 12 266 12 475 1z m3410 -1748 c217 -269 392 -544 546 -856 266 -538 418
-1108 465 -1734 l7 -92 -709 2 -709 3 -7 95 c-30 400 -167 846 -373 1221 -80
146 -227 364 -335 498 l-92 114 498 499 499 499 43 -48 c24 -26 99 -117 167
-201z m-6557 -256 l496 -493 -96 -119 c-394 -491 -628 -1044 -704 -1664 -20
-164 -23 -557 -5 -710 75 -633 313 -1212 692 -1679 46 -57 90 -111 96 -120 11
-14 -54 -84 -486 -515 l-498 -498 -40 43 c-166 182 -351 427 -495 659 -786
1264 -916 2850 -344 4223 190 456 443 867 770 1251 54 64 103 116 108 116 6 0
233 -222 506 -494z m3283 318 c968 -119 1791 -679 2269 -1544 186 -336 313
-747 346 -1122 l6 -78 -390 0 -390 0 -31 -25 c-37 -32 -48 -66 -55 -180 -9
-140 -52 -286 -123 -410 l-28 -50 -5 698 -5 699 -37 34 -38 34 -332 0 c-364 0
-366 -1 -405 -59 l-23 -34 0 -923 0 -924 -21 0 c-35 0 -84 -29 -102 -59 -14
-24 -17 -56 -17 -193 0 -418 70 -1031 169 -1483 11 -49 17 -93 13 -97 -12 -12
-208 -84 -332 -121 -499 -151 -1087 -159 -1596 -21 -1004 271 -1798 1038
-2098 2029 -49 161 -92 377 -112 560 -21 200 -14 543 15 735 189 1229 1105
2214 2311 2484 328 73 683 91 1011 50z m1349 -2938 l0 -744 -71 -46 c-63 -40
-172 -91 -236 -111 l-23 -6 0 825 0 826 165 0 165 0 0 -744z m4124 -68 c2 -7
9 -47 15 -88 37 -235 167 -486 346 -666 204 -205 433 -320 739 -369 l39 -6 -7
-157 c-79 -1750 -762 -3414 -1942 -4722 -234 -260 -643 -646 -867 -818 l-56
-44 -78 63 c-384 310 -781 703 -1091 1076 -1023 1235 -1617 2782 -1691 4403
-5 107 -8 196 -7 197 1 2 41 10 88 18 345 60 650 257 845 545 87 129 170 342
194 498 l12 82 1729 0 c1374 0 1729 -3 1732 -12z m-7906 -2456 c313 -268 759
-505 1182 -627 633 -182 1331 -162 1944 57 77 27 150 52 161 55 18 4 23 -8 49
-104 77 -288 255 -783 390 -1081 31 -68 56 -127 56 -132 0 -15 -365 -138 -548
-184 -768 -195 -1549 -197 -2307 -4 -329 83 -594 182 -920 344 -379 187 -761
446 -1041 704 l-47 43 496 494 c272 271 500 493 507 493 6 0 41 -26 78 -58z"/>
<path d="M4444 9481 c-70 -42 -64 94 -64 -1559 0 -1640 -4 -1534 60 -1567 24
-12 83 -15 357 -15 307 0 330 1 360 20 17 10 38 29 45 42 11 19 13 301 13
1513 0 1461 0 1491 -20 1522 -36 61 -49 63 -402 63 -295 0 -320 -1 -349 -19z
m516 -1566 l0 -1325 -165 0 -165 0 0 1325 0 1325 165 0 165 0 0 -1325z"/>
<path d="M5481 8132 c-19 -9 -44 -30 -55 -45 -21 -28 -21 -37 -24 -826 -3
-878 -4 -857 57 -898 34 -23 37 -23 363 -23 275 0 334 3 358 15 63 32 60 -6
60 893 l0 819 -22 28 c-41 52 -61 55 -395 55 -273 0 -312 -2 -342 -18z m509
-892 l0 -650 -165 0 -165 0 0 650 0 650 165 0 165 0 0 -650z"/>
<path d="M3423 7735 c-18 -8 -42 -29 -53 -47 -19 -32 -20 -49 -20 -641 0 -673
-1 -657 63 -691 29 -15 68 -17 368 -14 320 3 338 4 359 23 50 44 50 43 50 682
0 549 -1 601 -18 633 -33 67 -48 70 -402 70 -248 -1 -322 -4 -347 -15z m507
-695 l0 -450 -165 0 -165 0 0 450 0 450 165 0 165 0 0 -450z"/>
<path d="M8169 7075 c-27 -15 -38 -33 -84 -145 -120 -291 -371 -549 -663 -681
-191 -87 -188 -82 -178 -249 12 -218 66 -569 132 -855 280 -1220 946 -2356
1867 -3187 166 -150 178 -148 393 50 979 905 1652 2146 1879 3466 28 162 60
422 70 556 8 112 -7 139 -103 181 -211 94 -322 168 -458 303 -122 123 -219
265 -285 419 -28 64 -60 122 -74 135 l-26 22 -1222 0 c-1037 -1 -1226 -3
-1248 -15z m2383 -348 c149 -291 385 -528 673 -678 55 -29 101 -52 101 -53 1
-1 -4 -55 -12 -121 -131 -1160 -603 -2259 -1355 -3155 -110 -131 -297 -330
-445 -473 l-102 -98 -147 143 c-847 821 -1432 1893 -1674 3070 -31 148 -74
431 -86 565 l-7 73 43 19 c66 28 195 106 277 167 198 149 351 334 467 564 l45
90 1083 0 1082 0 57 -113z"/>
<path d="M9250 5814 c-96 -25 -197 -81 -270 -151 -88 -83 -136 -156 -173 -261
-80 -232 -24 -482 145 -655 l70 -72 -43 -270 c-23 -148 -46 -291 -49 -318 -11
-79 21 -138 85 -159 11 -3 190 -6 398 -7 410 -1 423 0 465 54 13 16 22 42 22
62 0 19 -23 169 -50 335 l-51 300 74 78 c122 127 177 264 177 440 0 121 -20
202 -72 304 -80 153 -239 278 -409 320 -81 20 -244 20 -319 0z m305 -265 c45
-17 76 -38 126 -88 86 -86 113 -151 113 -271 1 -74 -3 -93 -30 -150 -38 -81
-83 -133 -152 -178 -92 -58 -92 -57 -38 -390 26 -157 45 -287 43 -289 -2 -2
-96 -2 -209 -1 l-205 3 46 277 c55 339 56 329 -47 408 -123 93 -174 189 -173
328 0 174 124 328 298 372 56 14 160 5 228 -21z"/>
</g>
</svg>
