<svg xmlns="http://www.w3.org/2000/svg" xmlns:xlink="http://www.w3.org/1999/xlink" version="1.1" x="0px" y="0px" viewBox="0 0 64 80" style="enable-background:new 0 0 64 64;" xml:space="preserve"><g><g><path d="M32.9,0.7c-3.5,0-6.3,2.8-6.3,6.3c0,3.5,2.8,6.3,6.3,6.3c3.5,0,6.3-2.8,6.3-6.3C39.2,3.5,36.4,0.7,32.9,0.7z M31.1,4.3    L31.1,4.3c0-0.2,0-0.4,0-0.6c0-0.3,0.2-0.7,0.4-0.9c0.3-0.3,0.8-0.5,1.3-0.4c0.5,0,1,0.2,1.3,0.4c0.4,0.3,0.7,0.8,0.6,1.3    c0,0.1,0,0.2,0,0.2c0,0.1,0,0.2,0,0.2c0,0,0,0.1,0,0.1c0.1,0,0.1,0.1,0.1,0.2v0c0,0.2,0,0.5-0.2,0.7v0c0,0,0,0,0,0    c-0.2,0.6-0.5,1.2-1,1.5c-0.2,0.1-0.5,0.2-0.7,0.2c-0.3,0-0.5-0.1-0.8-0.3c-0.5-0.4-0.8-0.9-0.9-1.5c0,0,0,0,0-0.1    C31.1,5.4,31,5.3,31,5.2c0,0,0-0.1,0-0.1c0-0.1,0-0.2,0-0.3c0-0.1,0.1-0.2,0.1-0.2C31.1,4.5,31.1,4.4,31.1,4.3z M33.3,11.6h-0.7    c-1.7-0.1-3.1-1.1-3.8-2.5c0,0,0,0,0-0.1c0.2-0.4,1.3-0.8,1.5-0.8c0.1,0,1.3-0.5,1.3-0.5l0.9,1.7c0-0.2,0-0.9,0-1    c0-0.1-0.1-0.4-0.1-0.4h1c0,0-0.1,0.3-0.1,0.4c0,0.1,0,0.9,0,1l0.9-1.7c0,0,1.2,0.5,1.3,0.5c0.2,0.1,1.3,0.5,1.5,0.8    c0,0,0,0,0,0.1C36.4,10.5,34.9,11.5,33.3,11.6z"/></g><g><path d="M56.9,26.1c-3.5,0-6.3,2.8-6.3,6.3c0,3.5,2.8,6.3,6.3,6.3c3.5,0,6.3-2.8,6.3-6.3C63.1,28.9,60.3,26.1,56.9,26.1z M55,29.7    c0-0.2,0-0.4,0-0.6c0-0.4,0.2-0.7,0.4-0.9c0.3-0.3,0.8-0.5,1.3-0.4c0.5,0,1,0.2,1.3,0.4c0.4,0.3,0.7,0.8,0.6,1.4    c0,0.1,0,0.2,0,0.2c0,0.1,0,0.2-0.1,0.2c0,0,0,0.1,0,0.1c0.1,0.1,0.1,0.1,0.1,0.2v0c0,0.2,0,0.5-0.2,0.7c0,0,0,0,0,0    c0,0,0,0,0,0.1c-0.2,0.6-0.5,1.1-1,1.5c-0.2,0.1-0.5,0.2-0.7,0.2c-0.2,0-0.5-0.1-0.8-0.3c-0.5-0.4-0.8-0.9-0.9-1.5c0,0,0,0,0-0.1    c-0.1-0.1-0.1-0.3-0.1-0.4c0,0,0-0.1,0-0.1c0-0.1,0-0.2,0-0.3c0-0.1,0.1-0.2,0.1-0.2C55,29.9,55,29.8,55,29.7z M57.2,37h-0.7    c-1.7-0.1-3.1-1.1-3.8-2.5c0,0,0-0.1,0-0.1c0.3-0.4,1.3-0.8,1.5-0.8c0.1,0,1.3-0.5,1.3-0.5l0.9,1.7c0-0.2,0.1-0.9,0-1    c0-0.1-0.1-0.4-0.1-0.4h0.9c0,0-0.1,0.3-0.1,0.4c0,0.1,0,0.9,0,1l0.9-1.7c0,0,1.2,0.5,1.3,0.5c0.2,0.1,1.3,0.5,1.5,0.8    c0,0,0,0,0,0.1C60.3,35.9,58.8,36.9,57.2,37z"/></g><g><path d="M31.6,50.7c-3.5,0-6.3,2.8-6.3,6.3s2.8,6.3,6.3,6.3c3.5,0,6.3-2.8,6.3-6.3S35.1,50.7,31.6,50.7z M29.7,54.3    c0-0.2,0-0.4,0-0.6c0-0.4,0.2-0.7,0.4-0.9c0.3-0.3,0.8-0.5,1.3-0.4c0.5,0,1,0.2,1.3,0.4c0.4,0.3,0.7,0.8,0.6,1.4    c0,0.1,0,0.2,0,0.2c0,0.1,0,0.2,0,0.2c0,0,0,0.1,0,0.1c0.1,0,0.1,0.1,0.1,0.2v0c0,0.2,0,0.5-0.2,0.7c0,0,0,0,0,0c0,0,0,0,0,0.1    c-0.2,0.6-0.5,1.1-1,1.5c-0.2,0.1-0.4,0.2-0.7,0.2c-0.3,0-0.5-0.1-0.8-0.3c-0.5-0.4-0.8-0.9-0.9-1.5c0,0,0,0,0-0.1    c-0.1-0.1-0.1-0.3-0.2-0.4c0,0,0-0.1,0-0.1c0-0.1,0-0.2,0-0.2c0-0.1,0.1-0.2,0.1-0.2C29.7,54.5,29.7,54.4,29.7,54.3z M31.9,61.6    h-0.7c-1.7-0.1-3.1-1.1-3.8-2.5c0,0,0,0,0-0.1c0.2-0.4,1.3-0.8,1.5-0.8c0.1,0,1.3-0.5,1.3-0.5l0.9,1.7c0-0.2,0-0.9,0-1    c0-0.1-0.1-0.4-0.1-0.4h1c0,0-0.1,0.3-0.1,0.4c0,0.1,0,0.9,0,1l0.9-1.7c0,0,1.2,0.5,1.3,0.5c0.2,0.1,1.3,0.5,1.5,0.8    c0,0,0,0,0,0.1C35,60.5,33.6,61.5,31.9,61.6z"/></g><g><path d="M7.1,26.7c-3.5,0-6.3,2.8-6.3,6.3s2.8,6.3,6.3,6.3c3.5,0,6.3-2.8,6.3-6.3S10.6,26.7,7.1,26.7z M5.3,30.3L5.3,30.3    c0-0.2,0-0.4,0-0.6c0-0.4,0.2-0.7,0.4-0.9C6,28.5,6.5,28.3,7,28.4c0.5,0,1,0.2,1.3,0.4C8.8,29,9,29.5,9,30.1c0,0.1,0,0.2,0,0.2    c0,0.1,0,0.2,0,0.2c0,0,0,0.1,0,0.1c0,0.1,0.1,0.1,0.1,0.2v0c0,0.2,0,0.5-0.2,0.7c0,0,0,0,0,0v0.1c-0.2,0.6-0.5,1.2-1,1.5    c-0.2,0.1-0.5,0.2-0.7,0.2c-0.3,0-0.5-0.1-0.8-0.3c-0.5-0.4-0.8-0.9-0.9-1.5c0,0,0,0,0-0.1c-0.1-0.1-0.1-0.3-0.1-0.4    c0,0,0-0.1,0-0.1c0-0.1,0-0.2,0-0.2c0-0.1,0.1-0.2,0.1-0.2C5.3,30.5,5.3,30.4,5.3,30.3z M7.5,37.7H6.8c-1.7-0.1-3.1-1.1-3.8-2.5    c0,0,0,0,0-0.1c0.2-0.4,1.3-0.8,1.5-0.8c0.1,0,1.3-0.6,1.3-0.6l0.9,1.7c0-0.2,0-1,0-1c0-0.1-0.1-0.4-0.1-0.4h1    c0,0-0.1,0.3-0.1,0.4c0,0.1,0,0.9,0,1l0.9-1.7c0,0,1.2,0.5,1.3,0.5c0.2,0.1,1.3,0.5,1.6,0.8c0,0,0,0,0,0.1    C10.6,36.6,9.1,37.6,7.5,37.7z"/></g><path d="M54.5,39.8L54.5,39.8c-2.4,7.2-8.2,13-15.4,15.3c0.2,0.6,0.3,1.3,0.3,2c0,0.1,0,0.2,0,0.3c8.3-2.5,14.8-8.9,17.4-17.2   C56,40.1,55.3,40,54.5,39.8z M9.6,40.4c-0.7,0.2-1.5,0.4-2.2,0.4c2.6,7.7,8.8,13.8,16.5,16.3c0,0,0,0,0-0.1c0-0.8,0.1-1.5,0.3-2.2   C17.4,52.5,12,47.1,9.6,40.4z M40.7,7.8c-0.1,0.8-0.3,1.5-0.6,2.2c6.8,2.5,12.2,8,14.4,14.9c0.7-0.2,1.5-0.3,2.2-0.3   C54.3,16.8,48.3,10.6,40.7,7.8z M25.2,7.2c-8.8,2.4-15.8,9.3-18.3,18c0.1,0,0.2,0,0.2,0c0.7,0,1.4,0.1,2,0.3   c2.3-7.8,8.6-13.9,16.4-16.1C25.3,8.7,25.2,8,25.2,7.2z"/><path d="M43.6,20.4c-3.1-3.1-7.2-4.8-11.6-4.8c-4.4,0-8.5,1.7-11.6,4.8c-3.1,3.1-4.8,7.2-4.8,11.6c0,4.4,1.7,8.5,4.8,11.6   c3.1,3.1,7.2,4.8,11.6,4.8c4.4,0,8.5-1.7,11.6-4.8c3.1-3.1,4.8-7.2,4.8-11.6S46.7,23.5,43.6,20.4z M46.1,32.9   c-0.1,1.8-0.6,3.6-1.4,5.2c-2-0.5-4.1-0.9-6-1.2c0.2-1.3,0.3-2.6,0.3-3.9L46.1,32.9z M36.8,30.8l-3.6,0.1V27c0.1,0,0.1,0,0.2,0   c1,0,2.1-0.1,3.1-0.2C36.6,28.1,36.7,29.4,36.8,30.8z M33.1,24.8v-6.4c1.2,1,2.2,3.3,2.9,6.3C35,24.7,34.1,24.8,33.1,24.8z    M38.7,26.5l5.9-1.1c0.9,1.6,1.4,3.4,1.6,5.2L39,30.8C39,29.3,38.8,27.9,38.7,26.5z M36.1,45.5c0.4-0.7,0.8-1.5,1.1-2.3   c0.5-1.2,0.8-2.6,1.1-4c1.7,0.2,3.4,0.6,5.2,1C41.7,42.7,39.1,44.6,36.1,45.5z M38.3,24.4c-0.3-1.3-0.6-2.5-1-3.5   c-0.3-0.9-0.7-1.7-1.1-2.3c2.8,0.9,5.3,2.6,7.2,5C41.6,23.8,39.9,24.1,38.3,24.4z M36.5,36.7c-1-0.1-2.1-0.2-3.1-0.2   c-0.1,0-0.2,0-0.3,0v-3.4l3.6-0.1C36.7,34.3,36.6,35.5,36.5,36.7z M33.1,45.6v-6.9c1,0,2,0.1,3,0.2C35.5,42.1,34.3,44.6,33.1,45.6z    M27.2,33.2l3.6-0.1v3.3c-1.1,0-2.3,0.1-3.4,0.2C27.4,35.5,27.3,34.4,27.2,33.2z M30.9,38.7v7c-1.2-1-2.4-3.6-3-6.8   C28.8,38.7,29.9,38.7,30.9,38.7z M25.3,36.9c-2.1,0.3-4.1,0.8-6,1.4c-0.8-1.5-1.2-3.2-1.4-4.9l7.1-0.1C25,34.5,25.1,35.7,25.3,36.9   z M25.3,26.6C25.1,28,25,29.5,25,31l-7.1,0.1c0.1-2,0.7-4,1.6-5.8C21.4,25.9,23.4,26.4,25.3,26.6z M25.6,39.1   c0.3,1.5,0.7,2.9,1.2,4.1c0.3,0.9,0.7,1.7,1.1,2.3c-3-0.9-5.6-2.8-7.4-5.3C22.1,39.7,23.9,39.3,25.6,39.1z M20.8,23.4   c1.8-2.3,4.3-4.1,7.1-4.9c-0.4,0.7-0.8,1.5-1.1,2.3c-0.4,1.1-0.8,2.3-1.1,3.6C24,24.2,22.4,23.8,20.8,23.4z M30.9,27.1v3.8L27.2,31   c0-1.4,0.1-2.8,0.3-4.1C28.6,27,29.8,27.1,30.9,27.1z M30.9,18.4v6.5c-1,0-2-0.1-2.9-0.1C28.6,21.7,29.7,19.4,30.9,18.4z"/></g><text x="0" y="79" fill="#000000" font-size="5px" font-weight="bold" font-family="'Helvetica Neue', Helvetica, Arial-Unicode, Arial, Sans-serif">Created by Mohammed Rabiul Alam</text><text x="0" y="84" fill="#000000" font-size="5px" font-weight="bold" font-family="'Helvetica Neue', Helvetica, Arial-Unicode, Arial, Sans-serif">from the Noun Project</text></svg>