<svg xmlns="http://www.w3.org/2000/svg" xmlns:xlink="http://www.w3.org/1999/xlink" version="1.1" x="0px" y="0px" viewBox="0 0 48 60" enable-background="new 0 0 48 48" xml:space="preserve"><g><path fill="#000000" d="M48.1,1.1c0-0.5-0.4-1-1-1h-0.2c-1.3,0-8.1,0.1-13.7,2.3c-1.9,0.8-3.4,1.7-4.6,2.8c-0.1,0-0.1,0.1-0.2,0.1   L19.7,14l-8.6,0.8c-0.9,0.1-1.7,0.5-2.4,1.1l-8.4,8.4c-0.3,0.3-0.4,0.8-0.2,1.1c0.2,0.4,0.5,0.6,0.9,0.6h0.1l7.3-0.7l-0.7,0.7   c-0.2,0.2-0.3,0.4-0.3,0.7s0.1,0.5,0.3,0.7l0.9,0.9c-3.4,2.2-5.7,8.6-6,9.4c-0.1,0.4,0,0.8,0.2,1C3,39,3.2,39.1,3.5,39.1   c0.1,0,0.2,0,0.3-0.1c0.1,0,0.4-0.1,0.8-0.3c-2.5,3.8-4.2,7.4-4.4,7.7c-0.2,0.4-0.1,0.8,0.2,1.1c0.2,0.2,0.4,0.3,0.7,0.3   c0.1,0,0.3,0,0.4-0.1c0.3-0.1,4-1.9,7.7-4.4c-0.1,0.4-0.2,0.6-0.3,0.8c-0.1,0.4,0,0.8,0.2,1c0.2,0.2,0.4,0.3,0.7,0.3   c0.1,0,0.2,0,0.3-0.1c0.8-0.3,7.1-2.6,9.4-6l0.9,0.9c0.2,0.2,0.5,0.3,0.7,0.3s0.5-0.1,0.7-0.3l0.7-0.7l-0.7,7.3   c0,0.4,0.2,0.8,0.6,1c0.1,0.1,0.3,0.1,0.4,0.1c0.3,0,0.5-0.1,0.7-0.3l8.4-8.4c0.6-0.6,1-1.5,1.1-2.4l0.8-8.6l8.7-8.7   c0.1,0,0.1-0.1,0.1-0.2c1.1-1.2,2-2.8,2.8-4.6C48.2,8.9,48.1,1.4,48.1,1.1z M3.8,23.9l6.4-6.4c0.3-0.3,0.7-0.5,1.2-0.5l6.2-0.6   l-6.9,6.9L3.8,23.9z M5.4,36.3c1.1-2.4,2.9-5.5,4.7-6.4l1.4,1.4c-1.6,1-3.1,2.5-4.5,4.2C6.5,35.8,6,36.2,5.4,36.3z M3.5,44.8   c1.2-2.3,3-5.2,4.9-7.6c1.9-1,3.8-2.4,4.9-4l1.8,1.8c-1.6,1.1-3,3.1-4,5C8.6,41.8,5.6,43.6,3.5,44.8z M11.9,42.8   c0.2-0.5,0.5-1.1,0.8-1.7c1.7-1.4,3.2-2.9,4.2-4.5l1.4,1.4C17.4,39.9,14.3,41.8,11.9,42.8z M31.4,36.9c0,0.4-0.2,0.9-0.5,1.2   l-6.4,6.4l0.6-6.9l6.9-6.9L31.4,36.9z M43.9,14.3c-0.7,1.7-1.5,3.1-2.5,4.1l-0.1,0.1L21.4,38.3L9.8,26.8L29.7,6.9l0.1-0.1   c1-1,2.4-1.8,4.1-2.5c4.5-1.7,10-2,12.2-2.1C46,4.3,45.7,9.8,43.9,14.3z"/><path fill="#000000" d="M29.8,13.1c0,1.4,0.5,2.7,1.5,3.7c1,1,2.3,1.5,3.7,1.5s2.7-0.5,3.7-1.5s1.5-2.3,1.5-3.7s-0.5-2.7-1.5-3.7   S36.4,8,35,8s-2.7,0.5-3.7,1.5C30.3,10.5,29.8,11.8,29.8,13.1z M32.8,10.8c0.6-0.6,1.4-1,2.3-1s1.7,0.3,2.3,1s1,1.4,1,2.3   c0,0.9-0.3,1.7-1,2.3c-1.2,1.2-3.4,1.2-4.6,0c-0.6-0.6-1-1.4-1-2.3C31.8,12.3,32.2,11.4,32.8,10.8z"/></g><text x="0" y="63" fill="#000000" font-size="5px" font-weight="bold" font-family="'Helvetica Neue', Helvetica, Arial-Unicode, Arial, Sans-serif">Created by Creative Stall</text><text x="0" y="68" fill="#000000" font-size="5px" font-weight="bold" font-family="'Helvetica Neue', Helvetica, Arial-Unicode, Arial, Sans-serif">from the Noun Project</text></svg>